<svg width="117" height="26" viewBox="0 0 117 26" fill="none" xmlns="http://www.w3.org/2000/svg">
<path d="M0.556818 25V1.72727H14.9886V4.75H4.06818V11.8409H13.9545V14.8523H4.06818V25H0.556818ZM25.1051 25.3523C23.4688 25.3523 22.0407 24.9773 20.821 24.2273C19.6013 23.4773 18.6544 22.428 17.9801 21.0795C17.3059 19.7311 16.9688 18.1553 16.9688 16.3523C16.9688 14.5417 17.3059 12.9583 17.9801 11.6023C18.6544 10.2462 19.6013 9.19318 20.821 8.44318C22.0407 7.69318 23.4688 7.31818 25.1051 7.31818C26.7415 7.31818 28.1695 7.69318 29.3892 8.44318C30.6089 9.19318 31.5559 10.2462 32.2301 11.6023C32.9044 12.9583 33.2415 14.5417 33.2415 16.3523C33.2415 18.1553 32.9044 19.7311 32.2301 21.0795C31.5559 22.428 30.6089 23.4773 29.3892 24.2273C28.1695 24.9773 26.7415 25.3523 25.1051 25.3523ZM25.1165 22.5C26.1771 22.5 27.0559 22.2197 27.7528 21.6591C28.4498 21.0985 28.965 20.3523 29.2983 19.4205C29.6392 18.4886 29.8097 17.4621 29.8097 16.3409C29.8097 15.2273 29.6392 14.2045 29.2983 13.2727C28.965 12.3333 28.4498 11.5795 27.7528 11.0114C27.0559 10.4432 26.1771 10.1591 25.1165 10.1591C24.0483 10.1591 23.1619 10.4432 22.4574 11.0114C21.7604 11.5795 21.2415 12.3333 20.9006 13.2727C20.5672 14.2045 20.4006 15.2273 20.4006 16.3409C20.4006 17.4621 20.5672 18.4886 20.9006 19.4205C21.2415 20.3523 21.7604 21.0985 22.4574 21.6591C23.1619 22.2197 24.0483 22.5 25.1165 22.5ZM44.3864 25.3523C42.75 25.3523 41.322 24.9773 40.1023 24.2273C38.8826 23.4773 37.9356 22.428 37.2614 21.0795C36.5871 19.7311 36.25 18.1553 36.25 16.3523C36.25 14.5417 36.5871 12.9583 37.2614 11.6023C37.9356 10.2462 38.8826 9.19318 40.1023 8.44318C41.322 7.69318 42.75 7.31818 44.3864 7.31818C46.0227 7.31818 47.4508 7.69318 48.6705 8.44318C49.8902 9.19318 50.8371 10.2462 51.5114 11.6023C52.1856 12.9583 52.5227 14.5417 52.5227 16.3523C52.5227 18.1553 52.1856 19.7311 51.5114 21.0795C50.8371 22.428 49.8902 23.4773 48.6705 24.2273C47.4508 24.9773 46.0227 25.3523 44.3864 25.3523ZM44.3977 22.5C45.4583 22.5 46.3371 22.2197 47.0341 21.6591C47.7311 21.0985 48.2462 20.3523 48.5795 19.4205C48.9205 18.4886 49.0909 17.4621 49.0909 16.3409C49.0909 15.2273 48.9205 14.2045 48.5795 13.2727C48.2462 12.3333 47.7311 11.5795 47.0341 11.0114C46.3371 10.4432 45.4583 10.1591 44.3977 10.1591C43.3295 10.1591 42.4432 10.4432 41.7386 11.0114C41.0417 11.5795 40.5227 12.3333 40.1818 13.2727C39.8485 14.2045 39.6818 15.2273 39.6818 16.3409C39.6818 17.4621 39.8485 18.4886 40.1818 19.4205C40.5227 20.3523 41.0417 21.0985 41.7386 21.6591C42.4432 22.2197 43.3295 22.5 44.3977 22.5ZM62.8494 25.3409C61.4403 25.3409 60.1828 24.9811 59.0767 24.2614C57.9782 23.5341 57.1146 22.5 56.4858 21.1591C55.8646 19.8106 55.554 18.1932 55.554 16.3068C55.554 14.4205 55.8684 12.8068 56.4972 11.4659C57.1335 10.125 58.0047 9.09848 59.1108 8.38636C60.2169 7.67424 61.4706 7.31818 62.8722 7.31818C63.9555 7.31818 64.8267 7.5 65.4858 7.86364C66.1525 8.2197 66.6676 8.63636 67.0312 9.11364C67.4025 9.59091 67.6903 10.0114 67.8949 10.375H68.0994V1.72727H71.4972V25H68.179V22.2841H67.8949C67.6903 22.6553 67.3949 23.0795 67.0085 23.5568C66.6297 24.0341 66.107 24.4508 65.4403 24.8068C64.7737 25.1629 63.91 25.3409 62.8494 25.3409ZM63.5994 22.4432C64.5767 22.4432 65.4025 22.1856 66.0767 21.6705C66.7585 21.1477 67.2737 20.4242 67.6222 19.5C67.9782 18.5758 68.1562 17.5 68.1562 16.2727C68.1562 15.0606 67.982 14 67.6335 13.0909C67.285 12.1818 66.7737 11.4735 66.0994 10.9659C65.4252 10.4583 64.5919 10.2045 63.5994 10.2045C62.5767 10.2045 61.7244 10.4697 61.0426 11C60.3608 11.5303 59.8456 12.2538 59.4972 13.1705C59.1563 14.0871 58.9858 15.1212 58.9858 16.2727C58.9858 17.4394 59.16 18.4886 59.5085 19.4205C59.857 20.3523 60.3722 21.0909 61.054 21.6364C61.7434 22.1742 62.5919 22.4432 63.5994 22.4432ZM76.3466 25V7.54545H79.7443V25H76.3466ZM78.0625 4.85227C77.4716 4.85227 76.964 4.6553 76.5398 4.26136C76.1231 3.85985 75.9148 3.38257 75.9148 2.82954C75.9148 2.26894 76.1231 1.79167 76.5398 1.39773C76.964 0.996211 77.4716 0.795454 78.0625 0.795454C78.6534 0.795454 79.1572 0.996211 79.5739 1.39773C79.9981 1.79167 80.2102 2.26894 80.2102 2.82954C80.2102 3.38257 79.9981 3.85985 79.5739 4.26136C79.1572 4.6553 78.6534 4.85227 78.0625 4.85227ZM91.8381 25.3523C90.1184 25.3523 88.6373 24.9848 87.3949 24.25C86.16 23.5076 85.2055 22.4659 84.5312 21.125C83.8646 19.7765 83.5312 18.197 83.5312 16.3864C83.5312 14.5985 83.8646 13.0227 84.5312 11.6591C85.2055 10.2955 86.1449 9.23106 87.3494 8.46591C88.5616 7.70076 89.9782 7.31818 91.5994 7.31818C92.5843 7.31818 93.5388 7.48106 94.4631 7.80682C95.3873 8.13258 96.2169 8.64394 96.9517 9.34091C97.6866 10.0379 98.2661 10.9432 98.6903 12.0568C99.1146 13.1629 99.3267 14.5076 99.3267 16.0909V17.2955H85.4517V14.75H95.9972C95.9972 13.8561 95.8153 13.0644 95.4517 12.375C95.0881 11.678 94.5767 11.1288 93.9176 10.7273C93.2661 10.3258 92.5009 10.125 91.6222 10.125C90.6676 10.125 89.8343 10.3598 89.1222 10.8295C88.4176 11.2917 87.8722 11.8977 87.4858 12.6477C87.107 13.3902 86.9176 14.197 86.9176 15.0682V17.0568C86.9176 18.2235 87.1222 19.2159 87.5312 20.0341C87.9479 20.8523 88.5275 21.4773 89.2699 21.9091C90.0123 22.3333 90.8797 22.5455 91.8722 22.5455C92.5161 22.5455 93.1032 22.4545 93.6335 22.2727C94.1638 22.0833 94.6222 21.803 95.0085 21.4318C95.3949 21.0606 95.6903 20.6023 95.8949 20.0568L99.1108 20.6364C98.8532 21.5833 98.3911 22.4129 97.7244 23.125C97.0653 23.8295 96.2358 24.3788 95.2358 24.7727C94.2434 25.1591 93.1108 25.3523 91.8381 25.3523ZM116.176 11.8068L113.097 12.3523C112.968 11.9583 112.763 11.5833 112.483 11.2273C112.21 10.8712 111.839 10.5795 111.369 10.3523C110.9 10.125 110.313 10.0114 109.608 10.0114C108.646 10.0114 107.843 10.2273 107.199 10.6591C106.555 11.0833 106.233 11.6326 106.233 12.3068C106.233 12.8902 106.449 13.3598 106.881 13.7159C107.313 14.072 108.009 14.3636 108.972 14.5909L111.744 15.2273C113.35 15.5985 114.547 16.1705 115.335 16.9432C116.123 17.7159 116.517 18.7197 116.517 19.9545C116.517 21 116.214 21.9318 115.608 22.75C115.009 23.5606 114.172 24.197 113.097 24.6591C112.028 25.1212 110.79 25.3523 109.381 25.3523C107.426 25.3523 105.831 24.9356 104.597 24.1023C103.362 23.2614 102.604 22.0682 102.324 20.5227L105.608 20.0227C105.813 20.8788 106.233 21.5265 106.869 21.9659C107.506 22.3977 108.335 22.6136 109.358 22.6136C110.472 22.6136 111.362 22.3826 112.028 21.9205C112.695 21.4508 113.028 20.8788 113.028 20.2045C113.028 19.6591 112.824 19.2008 112.415 18.8295C112.013 18.4583 111.396 18.178 110.562 17.9886L107.608 17.3409C105.979 16.9697 104.775 16.3788 103.994 15.5682C103.222 14.7576 102.835 13.7311 102.835 12.4886C102.835 11.4583 103.123 10.5568 103.699 9.78409C104.275 9.01136 105.07 8.40909 106.085 7.97727C107.1 7.53788 108.263 7.31818 109.574 7.31818C111.46 7.31818 112.945 7.72727 114.028 8.54545C115.112 9.35606 115.828 10.4432 116.176 11.8068Z" fill="#06C167"/>
</svg>
